<svg height="100pt" viewBox="0 0 100 100" width="100pt" xmlns="http://www.w3.org/2000/svg"><g fill-rule="evenodd"><path d="m91.066 85.609c.53516-.007813 1.0508.19922 1.4297.57812.38281.375.59766.88672.59766 1.4219s-.21484 1.0469-.59766 1.4219c-.37891.375-.89453.58594-1.4297.57812h-82.137c-.53516.007813-1.0508-.20312-1.4297-.57812s-.59375-.88672-.59375-1.4219.21484-1.0469.59375-1.4219c.37891-.37891.89453-.58594 1.4297-.57812z"/><path d="m56.176 10.391c.71484 0 1.375.38281 1.7344 1 .35547.61719.35547 1.3789 0 2l-2.7109 4.707-2.4414 4.2305v4.2148c22.992 1.4258 41.242 20.598 41.242 44 0 2.8008-.26172 5.543-.77344 8.207-.17969.94141-1.0039 1.6211-1.9648 1.6211h-82.527.003906c-.96484 0-1.793-.6875-1.9688-1.6328-.49219-2.6484-.76953-5.3867-.76953-8.1953 0-23.906 19.051-43.41 42.758-44.074v-4.1367l-.25391-.4375c-.003906-.003906-.007812-.007812-.011718-.011719l-2.1836-3.7891-2.7109-4.707c-.35547-.62109-.35547-1.3828.003906-2 .35547-.61719 1.0156-1 1.7305-1h10.844zm-3.457 4h-3.9219l.98438 1.7109.97656 1.6953.98047-1.6953.98438-1.707zm-2.7148 16.062c-22.117 0-40.008 17.926-40.008 40.094 0 1.9766.15234 3.9219.43359 5.8281h79.145c.28125-1.8984.42578-3.8477.42578-5.8281 0-21.828-17.344-39.527-38.969-40.074-.19922.027344-.39844.023438-.59766-.011718-.26953 0-.42188-.015626-.42969-.015626z"/><path d="m53.633 35.02c6.2773.089844 13.762 4.3516 19.984 10.867 6.2227 6.5156 11.105 15.473 11.012 25.375.003906.53516-.20703 1.0508-.58984 1.4258-.37891.37891-.89453.58984-1.4297.58203-.53516-.003906-1.0469-.22266-1.418-.60938-.37109-.38281-.57422-.90234-.5625-1.4375.085938-8.5508-4.2266-16.633-9.9023-22.574-5.6758-5.9453-12.793-9.5664-17.148-9.6289-.53516-.003906-1.0469-.21875-1.418-.60156-.375-.37891-.58203-.89453-.57422-1.4297.007812-.53125.22656-1.043.61328-1.4102.38281-.37109.90234-.57422 1.4336-.55859z"/></g></svg>